# xmcd
#
# Track frame offsets:
#	150
#	14720
#	31970
#	61493
#	78563
#	87443
#	103653
#	121935
#	138745
#	165143
#	178988
#	194785
#	210578
#	258008
#
# Disc length: 3916 seconds
#
# Revision: 1
# Processed by: cddbd v1.5.1PL0 Copyright (c) Steve Scherf et al.
# Submitted via: audiograbber 1.83.01
#
DISCID=c60f4a0e
DTITLE=King George Band - Live in Europe
DYEAR=1992
DGENRE=Blues
TTITLE0=I Aint Lying
TTITLE1=Natural Thing
TTITLE2=Get Up, Stand Up
TTITLE3=Aint That Too Bad
TTITLE4=Black Magic Woman
TTITLE5=Virginia Rock
TTITLE6=Here I Am
TTITLE7=Voodo Man
TTITLE8=Feet On The Ground
TTITLE9=Help Me
TTITLE10=Root Rock Reggae
TTITLE11=Changes Is Gonna Come
TTITLE12=Soundful Band Intro
TTITLE13=Blues Rap
EXTD=
EXTT0=
EXTT1=
EXTT2=
EXTT3=
EXTT4=
EXTT5=
EXTT6=
EXTT7=
EXTT8=
EXTT9=
EXTT10=
EXTT11=
EXTT12=
EXTT13=
PLAYORDER=
